# xmcd
#
# Track frame offsets:
#	150
#	13590
#	29619
#	43317
#	61575
#	74183
#	90735
#	109360
#	127627
#	143752
#	161820
#	176385
#	192500
#	206645
#	222912
#	239477
#
# Disc length: 3403 seconds
#
# Revision: 3
# Processed by: cddbd v1.5.2PL0 Copyright (c) Steve Scherf et al.
# Submitted via: audiograbber 1.83.01
#
DISCID=f00d4910
DTITLE=MH1064 Monster Hits - Male Country Hits (MH)
DYEAR=1900
DGENRE=Karaoke
TTITLE0=John Anderson - Straight Tequila Night (MH)
TTITLE1=Garth Brooks - What She's Doing Now (MH)
TTITLE2=Brooks and Dunn - Hard Workin Man (MH)
TTITLE3=Colin Raye - Love Me (MH)
TTITLE4=Neal McCoy - Wink (MH)
TTITLE5=Clint Black - Like The Rain (MH)
TTITLE6=Vince Gill - Pocket Full Of Gold (MH)
TTITLE7=George Strait - Carrying Your Love With Me (MH)
TTITLE8=Travis Tritt - Can I Trust You With My Heart (MH)
TTITLE9=John Michael Montgomery - I Love The Way You Love Me (MH)
TTITLE10=Alabama - The Maker Said Take Her (MH)
TTITLE11=Ricky Van Shelton - I Am A Simple Man (MH)
TTITLE12=Tracy Lawrence - Alibis (MH)
TTITLE13=Sawyer Brown - Thank God For You (MH)
TTITLE14=Dwight Yoakum - Ain't That Lonely Yet (MH)
TTITLE15=Toby Keith - Should've Been A Cowboy (MH)
EXTD=
EXTT0=
EXTT1=
EXTT2=
EXTT3=
EXTT4=
EXTT5=
EXTT6=
EXTT7=
EXTT8=
EXTT9=
EXTT10=
EXTT11=
EXTT12=
EXTT13=
EXTT14=
EXTT15=
PLAYORDER=
